<svg xmlns="http://www.w3.org/2000/svg" width="199" height="216" fill="none"><path fill="#fff" d="M107.318 0c42.414 0 70.903 26.867 70.903 66.1 0 27.507-14.137 49.256-37.7 59.918-1.286.639-1.714 2.132-.857 3.198l58.907 83.372a2.13 2.13 0 0 1-1.713 3.412h-32.989s-1.285-.426-1.713-.853l-58.265-81.666s-1.071-.853-1.714-.853h-35.13c-1.285 0-2.142 1.066-2.142 2.132v23.029c0 1.279 1.071 2.132 2.142 2.132h26.134c1.285 0 2.142 1.066 2.142 2.132v20.683c0 1.28-1.071 2.133-2.142 2.133H67.047c-1.285 0-2.142 1.066-2.142 2.132v26.867c0 1.279-1.07 2.132-2.142 2.132H33.417c-1.286 0-2.143-1.066-2.143-2.132v-26.867c0-1.279-1.07-2.132-2.142-2.132H2.142c-1.285 0-2.142-1.066-2.142-2.133v-20.683c0-1.279 1.071-2.132 2.142-2.132h26.99c1.286 0 2.142-1.066 2.142-2.132v-27.507c0-1.279-1.07-2.132-2.142-2.132H2.142C.857 128.15 0 127.084 0 126.018v-20.683c0-1.28 1.071-2.133 2.142-2.133h26.99c1.286 0 2.142-1.066 2.142-2.132V2.132C31.274.852 32.346 0 33.416 0h74.117zM64.691 99.578c0 1.279 1.071 2.132 2.142 2.132h40.057c23.777 0 37.058-14.713 37.058-35.396 0-20.896-13.281-35.61-37.058-35.61H66.833c-1.285 0-2.142 1.067-2.142 2.133z"/></svg>